<svg aria-hidden="true" style="position: absolute; width: 0; height: 0; overflow: hidden;" version="1.1" xmlns="http://www.w3.org/2000/svg" xmlns:xlink="http://www.w3.org/1999/xlink">
<defs>
<symbol id="icon-logout" viewBox="0 0 30 32">
<path d="M17.945 8.664l-1.67 1.67 4.486 4.486h-20.761v2.361h20.761l-4.486 4.486 1.67 1.669 7.336-7.336-7.336-7.336z"></path>
<path d="M26.681 0.889h-15.583c-1.953 0-3.542 1.589-3.542 3.542v4.722h2.361v-4.722c0-0.651 0.53-1.181 1.181-1.181h15.583c0.651 0 1.181 0.53 1.181 1.181v23.139c0 0.651-0.53 1.181-1.181 1.181h-15.583c-0.651 0-1.181-0.53-1.181-1.181v-4.722h-2.361v4.722c0 1.953 1.589 3.542 3.542 3.542h15.583c1.953 0 3.542-1.589 3.542-3.542v-23.139c0-1.953-1.589-3.542-3.542-3.542z"></path>
</symbol>
<symbol id="icon-key" viewBox="0 0 32 32">
<path d="M27.861 4.194c1.456 1.455 2.391 3.35 2.661 5.391s-0.143 4.114-1.172 5.897c-1.029 1.783-2.619 3.176-4.521 3.963s-4.011 0.925-5.999 0.391l-10.8 10.8c-0.108 0.109-0.237 0.195-0.379 0.254s-0.294 0.089-0.447 0.090h-4.958c-0.154 0-0.306-0.030-0.448-0.089s-0.271-0.145-0.38-0.254c-0.109-0.109-0.195-0.238-0.254-0.38s-0.089-0.294-0.089-0.448v-4.958c-0-0.154 0.030-0.306 0.089-0.448s0.145-0.271 0.254-0.38c0.109-0.109 0.238-0.195 0.38-0.253s0.294-0.089 0.448-0.089l2.137 0.002-0.002-2.137c-0-0.154 0.030-0.306 0.089-0.448s0.145-0.271 0.254-0.38c0.109-0.109 0.238-0.195 0.38-0.254s0.294-0.089 0.448-0.089l2.137 0.002-0.002-2.137c-0-0.154 0.030-0.306 0.089-0.448s0.145-0.271 0.254-0.38 0.238-0.195 0.38-0.254c0.142-0.059 0.294-0.089 0.448-0.089l2.137 0.002-0.002-2.137c0-0.154 0.031-0.306 0.090-0.447s0.145-0.271 0.254-0.379l0.884-0.884c-0.534-1.988-0.396-4.097 0.391-5.999s2.181-3.491 3.963-4.521c1.783-1.029 3.856-1.442 5.897-1.172s3.936 1.204 5.391 2.661zM26.208 15.763c0.887-0.888 1.519-1.997 1.831-3.212s0.292-2.492-0.057-3.697c-0.349-1.205-1.016-2.294-1.93-3.154s-2.042-1.458-3.266-1.734c-1.224-0.275-2.5-0.217-3.694 0.169s-2.263 1.085-3.094 2.024-1.396 2.085-1.634 3.317c-0.238 1.232-0.141 2.505 0.28 3.687 0.074 0.208 0.087 0.433 0.039 0.648s-0.157 0.412-0.313 0.569l-1.041 1.041 0.002 2.821c0 0.154-0.030 0.306-0.089 0.448s-0.145 0.271-0.254 0.38c-0.109 0.109-0.238 0.195-0.38 0.254s-0.294 0.089-0.448 0.089l-2.137-0.002 0.002 2.137c0 0.154-0.030 0.306-0.089 0.448s-0.145 0.271-0.254 0.38c-0.109 0.109-0.238 0.195-0.38 0.253s-0.294 0.089-0.448 0.089l-2.137-0.002 0.002 2.137c0 0.154-0.030 0.306-0.089 0.448s-0.145 0.271-0.254 0.38c-0.109 0.109-0.238 0.195-0.38 0.254s-0.294 0.089-0.448 0.089l-2.137-0.002v2.621h3.305l10.957-10.957c0.156-0.156 0.353-0.264 0.568-0.313s0.44-0.035 0.648 0.039c1.25 0.446 2.602 0.528 3.897 0.237s2.481-0.945 3.419-1.884z"></path>
<path d="M21.25 10.805c-0.438-0.438-0.685-1.033-0.685-1.653s0.246-1.214 0.685-1.653c0.438-0.438 1.033-0.685 1.653-0.685s1.214 0.246 1.653 0.685c0.438 0.438 0.684 1.033 0.684 1.653s-0.246 1.214-0.684 1.653c-0.438 0.438-1.033 0.685-1.653 0.685s-1.214-0.246-1.653-0.685z"></path>
</symbol>
<symbol id="icon-skipped-leads" viewBox="0 0 30 32">
<path d="M0 5.716c0-1.623 1.353-2.938 3.022-2.938h24.178c1.669 0 3.022 1.316 3.022 2.938v2.938c0 1.098-0.619 2.055-1.536 2.559 0.016 0.124 0.025 0.251 0.025 0.379v14.691c0 1.623-1.353 2.938-3.022 2.938h-21.156c-1.669 0-3.022-1.316-3.022-2.938v-14.691c0-0.129 0.008-0.255 0.025-0.379-0.917-0.505-1.536-1.461-1.536-2.559v-2.938zM27.2 8.654v-2.938h-24.178v2.938h24.178zM4.533 11.593v14.691h21.156v-14.691h-21.156zM9.067 16c0-0.811 0.677-1.469 1.511-1.469h9.067c0.834 0 1.511 0.658 1.511 1.469s-0.677 1.469-1.511 1.469h-9.067c-0.835 0-1.511-0.658-1.511-1.469z"></path>
</symbol>
<symbol id="icon-invoices" viewBox="0 0 30 32">
<path d="M3.778 3.575c0-1.484 1.178-2.686 2.631-2.686h12.143c0.349 0 0.683 0.142 0.93 0.393l6.577 6.716c0.247 0.252 0.385 0.594 0.385 0.95v19.477c0 1.484-1.178 2.686-2.631 2.686h-17.405c-1.453 0-2.631-1.203-2.631-2.686v-24.849zM23.269 8.948l-4.717-4.816v4.816h4.717zM15.921 3.575h-9.512v24.849h17.405v-16.79h-6.577c-0.727 0-1.315-0.601-1.315-1.343v-6.716z"></path>
</symbol>
<symbol id="icon-leads" viewBox="0 0 30 32">
<path d="M0 7.5c0-1.565 1.274-2.833 2.844-2.833h12.778c0.377 0 0.739 0.149 1.006 0.415l2.428 2.418h8.322c1.571 0 2.844 1.269 2.844 2.833v14.167c0 1.565-1.273 2.833-2.844 2.833h-24.533c-1.571 0-2.844-1.268-2.844-2.833v-17zM15.033 7.5h-12.189v17h24.533v-14.167h-8.911c-0.377 0-0.739-0.149-1.006-0.415l-2.428-2.418z"></path>
</symbol>
<symbol id="icon-available-leads" viewBox="0 0 30 32">
<path d="M0 6.556c0-1.043 0.846-1.889 1.889-1.889h1.889c1.043 0 1.889 0.846 1.889 1.889s-0.846 1.889-1.889 1.889h-1.889c-1.043 0-1.889-0.846-1.889-1.889zM9.444 6.556c0-1.043 0.846-1.889 1.889-1.889h17c1.043 0 1.889 0.846 1.889 1.889s-0.846 1.889-1.889 1.889h-17c-1.043 0-1.889-0.846-1.889-1.889zM0 16c0-1.043 0.846-1.889 1.889-1.889h1.889c1.043 0 1.889 0.846 1.889 1.889s-0.846 1.889-1.889 1.889h-1.889c-1.043 0-1.889-0.846-1.889-1.889zM9.444 16c0-1.043 0.846-1.889 1.889-1.889h17c1.043 0 1.889 0.846 1.889 1.889s-0.846 1.889-1.889 1.889h-17c-1.043 0-1.889-0.846-1.889-1.889zM0 25.444c0-1.043 0.846-1.889 1.889-1.889h1.889c1.043 0 1.889 0.846 1.889 1.889s-0.846 1.889-1.889 1.889h-1.889c-1.043 0-1.889-0.846-1.889-1.889zM9.444 25.444c0-1.043 0.846-1.889 1.889-1.889h17c1.043 0 1.889 0.846 1.889 1.889s-0.846 1.889-1.889 1.889h-17c-1.043 0-1.889-0.846-1.889-1.889z"></path>
</symbol>
<symbol id="icon-eye-on" viewBox="0 0 32 32">
<path d="M29.075 16c-0.146 0.254-0.342 0.581-0.586 0.959-0.613 0.952-1.521 2.218-2.699 3.477-2.384 2.55-5.701 4.897-9.791 4.897s-7.406-2.347-9.79-4.897c-1.178-1.26-2.086-2.525-2.699-3.477-0.244-0.378-0.439-0.705-0.586-0.959 0.146-0.254 0.342-0.581 0.586-0.959 0.613-0.952 1.521-2.218 2.699-3.477 2.384-2.55 5.701-4.897 9.79-4.897s7.406 2.347 9.791 4.897c1.178 1.26 2.086 2.525 2.699 3.477 0.244 0.378 0.439 0.705 0.586 0.959zM1.371 16c-1.234 0.582-1.234 0.583-1.234 0.583l0.002 0.004 0.005 0.009 0.015 0.030c0.013 0.025 0.031 0.059 0.054 0.103 0.046 0.088 0.113 0.212 0.201 0.368 0.175 0.312 0.433 0.752 0.772 1.278 0.675 1.048 1.679 2.449 2.994 3.856 2.603 2.783 6.601 5.77 11.82 5.77s9.217-2.986 11.82-5.77c1.315-1.407 2.319-2.808 2.994-3.856 0.338-0.525 0.596-0.965 0.772-1.278 0.088-0.156 0.155-0.281 0.201-0.368 0.023-0.044 0.041-0.078 0.054-0.103l0.020-0.039 0.002-0.003c0 0 0.001-0.002-1.233-0.584l1.234 0.582c0.183-0.367 0.183-0.796 0-1.163l-1.234 0.582c1.234-0.582 1.234-0.582 1.234-0.582l-0.003-0.005-0.020-0.039c-0.013-0.025-0.031-0.059-0.054-0.103-0.046-0.088-0.113-0.212-0.201-0.368-0.175-0.312-0.433-0.752-0.772-1.278-0.675-1.048-1.679-2.449-2.994-3.856-2.603-2.783-6.601-5.77-11.82-5.77s-9.217 2.986-11.82 5.77c-1.315 1.407-2.319 2.808-2.994 3.856-0.338 0.525-0.596 0.965-0.772 1.278-0.088 0.156-0.155 0.281-0.201 0.368-0.023 0.044-0.041 0.078-0.054 0.103l-0.015 0.030-0.005 0.009-0.002 0.003c0 0-0.001 0.002 1.233 0.584zM1.371 16l-1.234 0.583c-0.183-0.367-0.184-0.797-0-1.164l1.234 0.582z"></path>
<path d="M16 18.222c1.262 0 2.286-0.995 2.286-2.222s-1.023-2.222-2.286-2.222c-1.262 0-2.286 0.995-2.286 2.222s1.023 2.222 2.286 2.222zM21.028 16c0 2.7-2.251 4.889-5.029 4.889s-5.029-2.189-5.029-4.889c0-2.7 2.251-4.889 5.029-4.889s5.029 2.189 5.029 4.889z"></path>
</symbol>
<symbol id="icon-eye-off" viewBox="0 0 32 32">
<path d="M16.004 25.167c0.794 0.002 1.586-0.091 2.36-0.278 0.805-0.194 1.616 0.301 1.81 1.106s-0.301 1.616-1.106 1.81c-1.006 0.243-2.036 0.364-3.069 0.362-5.142-0.001-9.070-3.027-11.613-5.824-1.287-1.416-2.269-2.826-2.929-3.879-0.331-0.528-0.583-0.971-0.755-1.286-0.086-0.158-0.152-0.283-0.197-0.372-0.023-0.044-0.040-0.079-0.053-0.105l-0.015-0.030-0.005-0.009-0.002-0.003c0 0-0.001-0.002 1.349-0.657 0.863-0.419 1.206-0.913 1.703 0.003 0.135 0.239 0.308 0.533 0.518 0.868 0.593 0.946 1.469 2.203 2.606 3.454 2.305 2.535 5.487 4.842 9.395 4.842h0.004zM3.481 16.003c0.656-1.168 1.409-2.275 2.252-3.308 0.524-0.642 0.428-1.587-0.214-2.111s-1.587-0.428-2.111 0.214c-1.138 1.394-2.13 2.906-2.962 4.511-0.218 0.42-0.225 0.919-0.018 1.345l1.35-0.654c0.74-0.359 1.213-0.861 1.703 0.003zM24.608 25.098c-0.604 0.476-1.47 0.418-2.005-0.134l-10.413-10.738c-0.006-0.006-0.012-0.013-0.018-0.019l-4.929-5.083c-0.296-0.305-0.448-0.721-0.42-1.145s0.236-0.816 0.57-1.078c2.464-1.937 5.471-3.015 8.582-3.067l0.025-0c5.143 0 9.071 3.027 11.615 5.825 1.287 1.416 2.269 2.826 2.929 3.88 0.331 0.528 0.583 0.971 0.755 1.286 0.086 0.158 0.152 0.283 0.197 0.372 0.023 0.044 0.040 0.079 0.053 0.105l0.015 0.030 0.006 0.013c0 0 0.001 0.002-1.349 0.657l1.35-0.654c0.207 0.427 0.2 0.926-0.019 1.347-1.705 3.277-4.072 6.144-6.945 8.406zM28.519 15.996c-0.135-0.238-0.308-0.532-0.517-0.866-0.593-0.946-1.469-2.203-2.606-3.454-2.302-2.533-5.481-4.837-9.382-4.842-1.886 0.034-3.73 0.547-5.371 1.486l2.745 2.83c0.163-0.097 0.332-0.186 0.506-0.266 0.663-0.305 1.38-0.469 2.109-0.482s1.452 0.125 2.125 0.406c0.673 0.28 1.282 0.697 1.79 1.221s0.907 1.146 1.174 1.828c0.267 0.681 0.397 1.409 0.385 2.141s-0.168 1.455-0.458 2.127c-0.087 0.203-0.187 0.399-0.297 0.589l3.067 3.163c1.88-1.673 3.48-3.659 4.732-5.879zM18.435 16.357c0.024-0.135 0.037-0.273 0.040-0.412 0.006-0.342-0.055-0.681-0.179-0.996s-0.306-0.598-0.534-0.833c-0.228-0.235-0.497-0.418-0.79-0.54s-0.604-0.181-0.917-0.175c-0.147 0.003-0.294 0.020-0.438 0.051l2.817 2.905z"></path>
<path d="M31.283 31.283c-0.586 0.586-1.536 0.586-2.121 0l-28.445-28.444c-0.586-0.586-0.586-1.536 0-2.121s1.536-0.586 2.121 0l28.444 28.445c0.586 0.586 0.586 1.535 0 2.121z"></path>
</symbol>
</defs>
</svg>
